<svg width="900" height="580" xmlns="http://www.w3.org/2000/svg">
 <defs>
  <linearGradient y2="100%" x2="100%" y1="0%" x1="0%" id="bg">
   <stop stop-color="#0f172a" offset="0%"/>
   <stop stop-color="#1e293b" offset="100%"/>
  </linearGradient>
 </defs>
 <!-- Sentence -->
 <!-- Attention grid -->
 <!-- Color legend -->
 <!-- Bottom insights -->
 <g>
  <title>Layer 1</title>
  <rect id="svg_1" rx="12" fill="url(#bg)" height="580" width="900"/>
  <text id="svg_2" text-anchor="middle" fill="#e2e8f0" font-weight="700" font-size="20" font-family="'Segoe UI', Arial, sans-serif" y="35" x="450">Self-Attention 可视化：Token 间的全局关联</text>
  <rect id="svg_3" stroke="#2563eb" fill="#172554" rx="8" height="40" width="740" y="55" x="80"/>
  <text id="svg_4" text-anchor="middle" fill="#bfdbfe" font-size="14" font-family="'Segoe UI', Arial, sans-serif" y="80" x="450">输入："分析这段代码的性能问题并给出优化建议"</text>
  <g id="svg_5">
   <!-- Column headers (Keys) -->
   <text id="svg_6" text-anchor="middle" fill="#94a3b8" font-size="9" font-family="'Consolas', monospace" y="110" x="195">分析</text>
   <text id="svg_7" text-anchor="middle" fill="#94a3b8" font-size="9" font-family="'Consolas', monospace" y="110" x="250">这段</text>
   <text id="svg_8" text-anchor="middle" fill="#94a3b8" font-size="9" font-family="'Consolas', monospace" y="110" x="305">代码</text>
   <text id="svg_9" text-anchor="middle" fill="#94a3b8" font-size="9" font-family="'Consolas', monospace" y="110" x="360">的</text>
   <text id="svg_10" text-anchor="middle" fill="#94a3b8" font-size="9" font-family="'Consolas', monospace" y="110" x="415">性能</text>
   <text id="svg_11" text-anchor="middle" fill="#94a3b8" font-size="9" font-family="'Consolas', monospace" y="110" x="470">问题</text>
   <text id="svg_12" text-anchor="middle" fill="#94a3b8" font-size="9" font-family="'Consolas', monospace" y="110" x="525">并</text>
   <text id="svg_13" text-anchor="middle" fill="#94a3b8" font-size="9" font-family="'Consolas', monospace" y="110" x="580">给出</text>
   <text id="svg_14" text-anchor="middle" fill="#94a3b8" font-size="9" font-family="'Consolas', monospace" y="110" x="635">优化</text>
   <text id="svg_15" text-anchor="middle" fill="#94a3b8" font-size="9" font-family="'Consolas', monospace" y="110" x="690">建议</text>
   <text id="svg_16" text-anchor="middle" fill="#64748b" font-size="9" font-family="'Consolas', monospace" y="110" x="745">→ Key</text>
   <!-- Row headers (Queries) -->
   <text id="svg_17" text-anchor="end" fill="#fbbf24" font-size="9" font-family="'Consolas', monospace" y="137" x="130">分析 ↓</text>
   <text id="svg_18" text-anchor="end" fill="#94a3b8" font-size="9" font-family="'Consolas', monospace" y="172" x="130">这段 ↓</text>
   <text id="svg_19" text-anchor="end" fill="#fbbf24" font-size="9" font-family="'Consolas', monospace" y="207" x="130">代码 ↓</text>
   <text id="svg_20" text-anchor="end" fill="#94a3b8" font-size="9" font-family="'Consolas', monospace" y="242" x="130">的 ↓</text>
   <text id="svg_21" text-anchor="end" fill="#fbbf24" font-size="9" font-family="'Consolas', monospace" y="277" x="130">性能 ↓</text>
   <text id="svg_22" text-anchor="end" fill="#fbbf24" font-size="9" font-family="'Consolas', monospace" y="312" x="130">问题 ↓</text>
   <text id="svg_23" text-anchor="end" fill="#94a3b8" font-size="9" font-family="'Consolas', monospace" y="347" x="130">并 ↓</text>
   <text id="svg_24" text-anchor="end" fill="#94a3b8" font-size="9" font-family="'Consolas', monospace" y="382" x="130">给出 ↓</text>
   <text id="svg_25" text-anchor="end" fill="#fbbf24" font-size="9" font-family="'Consolas', monospace" y="417" x="130">优化 ↓</text>
   <text id="svg_26" text-anchor="end" fill="#fbbf24" font-size="9" font-family="'Consolas', monospace" y="452" x="130">建议 ↓</text>
   <text id="svg_27" transform="rotate(-90 80 315)" text-anchor="middle" fill="#64748b" font-size="10" font-family="'Segoe UI', Arial, sans-serif" y="315" x="80">Query ↓</text>
   <!-- Attention scores (rows × cols) - row 1: 分析 -->
   <rect id="svg_28" opacity="0.95" fill="#f59e0b" rx="3" height="30" width="50" y="120" x="165"/>
   <rect id="svg_29" opacity="0.7" fill="#f59e0b" rx="3" height="30" width="50" y="120" x="220"/>
   <rect id="svg_30" opacity="0.85" fill="#f59e0b" rx="3" height="30" width="50" y="120" x="275"/>
   <rect id="svg_31" opacity="0.15" fill="#f59e0b" rx="3" height="30" width="50" y="120" x="330"/>
   <rect id="svg_32" opacity="0.6" fill="#f59e0b" rx="3" height="30" width="50" y="120" x="385"/>
   <rect id="svg_33" opacity="0.55" fill="#f59e0b" rx="3" height="30" width="50" y="120" x="440"/>
   <rect id="svg_34" opacity="0.1" fill="#f59e0b" rx="3" height="30" width="50" y="120" x="495"/>
   <rect id="svg_35" opacity="0.2" fill="#f59e0b" rx="3" height="30" width="50" y="120" x="550"/>
   <rect id="svg_36" opacity="0.3" fill="#f59e0b" rx="3" height="30" width="50" y="120" x="605"/>
   <rect id="svg_37" opacity="0.25" fill="#f59e0b" rx="3" height="30" width="50" y="120" x="660"/>
   <text id="svg_38" font-weight="bold" text-anchor="middle" fill="#000" font-size="8" y="139" x="190">0.92</text>
   <text id="svg_39" font-weight="bold" text-anchor="middle" fill="#000" font-size="8" y="139" x="245">0.78</text>
   <text id="svg_40" font-weight="bold" text-anchor="middle" fill="#000" font-size="8" y="139" x="300">0.88</text>
   <text id="svg_41" text-anchor="middle" fill="#000" font-size="8" y="139" x="410">0.55</text>
   <text id="svg_42" text-anchor="middle" fill="#000" font-size="8" y="139" x="465">0.50</text>
   <!-- row 2: 这段 -->
   <rect id="svg_43" opacity="0.5" fill="#f59e0b" rx="3" height="30" width="50" y="155" x="165"/>
   <rect id="svg_44" opacity="0.9" fill="#f59e0b" rx="3" height="30" width="50" y="155" x="220"/>
   <rect id="svg_45" opacity="0.8" fill="#f59e0b" rx="3" height="30" width="50" y="155" x="275"/>
   <rect id="svg_46" opacity="0.3" fill="#f59e0b" rx="3" height="30" width="50" y="155" x="330"/>
   <rect id="svg_47" opacity="0.15" fill="#f59e0b" rx="3" height="30" width="50" y="155" x="385"/>
   <rect id="svg_48" opacity="0.1" fill="#f59e0b" rx="3" height="30" width="50" y="155" x="440"/>
   <rect id="svg_49" opacity="0.1" fill="#f59e0b" rx="3" height="30" width="50" y="155" x="495"/>
   <rect id="svg_50" opacity="0.1" fill="#f59e0b" rx="3" height="30" width="50" y="155" x="550"/>
   <rect id="svg_51" opacity="0.1" fill="#f59e0b" rx="3" height="30" width="50" y="155" x="605"/>
   <rect id="svg_52" opacity="0.1" fill="#f59e0b" rx="3" height="30" width="50" y="155" x="660"/>
   <text id="svg_53" font-weight="bold" text-anchor="middle" fill="#000" font-size="8" y="174" x="245">0.85</text>
   <text id="svg_54" font-weight="bold" text-anchor="middle" fill="#000" font-size="8" y="174" x="300">0.80</text>
   <!-- row 3: 代码 -->
   <rect id="svg_55" opacity="0.6" fill="#f59e0b" rx="3" height="30" width="50" y="190" x="165"/>
   <rect id="svg_56" opacity="0.7" fill="#f59e0b" rx="3" height="30" width="50" y="190" x="220"/>
   <rect id="svg_57" opacity="0.95" fill="#f59e0b" rx="3" height="30" width="50" y="190" x="275"/>
   <rect id="svg_58" opacity="0.2" fill="#f59e0b" rx="3" height="30" width="50" y="190" x="330"/>
   <rect id="svg_59" opacity="0.7" fill="#f59e0b" rx="3" height="30" width="50" y="190" x="385"/>
   <rect id="svg_60" opacity="0.65" fill="#f59e0b" rx="3" height="30" width="50" y="190" x="440"/>
   <rect id="svg_61" opacity="0.1" fill="#f59e0b" rx="3" height="30" width="50" y="190" x="495"/>
   <rect id="svg_62" opacity="0.3" fill="#f59e0b" rx="3" height="30" width="50" y="190" x="550"/>
   <rect id="svg_63" opacity="0.5" fill="#f59e0b" rx="3" height="30" width="50" y="190" x="605"/>
   <rect id="svg_64" opacity="0.45" fill="#f59e0b" rx="3" height="30" width="50" y="190" x="660"/>
   <text id="svg_65" font-weight="bold" text-anchor="middle" fill="#000" font-size="8" y="209" x="300">0.93</text>
   <text id="svg_66" font-weight="bold" text-anchor="middle" fill="#000" font-size="8" y="209" x="410">0.72</text>
   <!-- row 4-7 simplified -->
   <rect id="svg_67" opacity="0.08" fill="#f59e0b" rx="3" height="30" width="550" y="225" x="165"/>
   <text id="svg_68" text-anchor="middle" fill="#475569" font-size="9" y="244" x="440">的：低注意力，功能词</text>
   <!-- row 5: 性能 -->
   <rect id="svg_69" opacity="0.5" fill="#f59e0b" rx="3" height="30" width="50" y="260" x="165"/>
   <rect id="svg_70" opacity="0.6" fill="#f59e0b" rx="3" height="30" width="50" y="260" x="275"/>
   <rect id="svg_71" opacity="0.15" fill="#f59e0b" rx="3" height="30" width="50" y="260" x="330"/>
   <rect id="svg_72" opacity="0.95" fill="#f59e0b" rx="3" height="30" width="50" y="260" x="385"/>
   <rect id="svg_73" opacity="0.85" fill="#f59e0b" rx="3" height="30" width="50" y="260" x="440"/>
   <rect id="svg_74" opacity="0.3" fill="#f59e0b" rx="3" height="30" width="50" y="260" x="550"/>
   <rect id="svg_75" opacity="0.4" fill="#f59e0b" rx="3" height="30" width="50" y="260" x="605"/>
   <text id="svg_76" font-weight="bold" text-anchor="middle" fill="#000" font-size="8" y="279" x="410">0.95</text>
   <text id="svg_77" font-weight="bold" text-anchor="middle" fill="#000" font-size="8" y="279" x="465">0.87</text>
   <!-- row 6: 问题 -->
   <rect id="svg_78" opacity="0.45" fill="#f59e0b" rx="3" height="30" width="50" y="295" x="165"/>
   <rect id="svg_79" opacity="0.5" fill="#f59e0b" rx="3" height="30" width="50" y="295" x="275"/>
   <rect id="svg_80" opacity="0.88" fill="#f59e0b" rx="3" height="30" width="50" y="295" x="385"/>
   <rect id="svg_81" opacity="0.95" fill="#f59e0b" rx="3" height="30" width="50" y="295" x="440"/>
   <rect id="svg_82" opacity="0.4" fill="#f59e0b" rx="3" height="30" width="50" y="295" x="550"/>
   <rect id="svg_83" opacity="0.5" fill="#f59e0b" rx="3" height="30" width="50" y="295" x="605"/>
   <rect id="svg_84" opacity="0.55" fill="#f59e0b" rx="3" height="30" width="50" y="295" x="660"/>
   <text id="svg_85" font-weight="bold" text-anchor="middle" fill="#000" font-size="8" y="314" x="410">0.90</text>
   <text id="svg_86" font-weight="bold" text-anchor="middle" fill="#000" font-size="8" y="314" x="465">0.95</text>
   <!-- row 7-8 simplified -->
   <rect id="svg_87" opacity="0.06" fill="#f59e0b" rx="3" height="30" width="550" y="330" x="165"/>
   <text id="svg_88" text-anchor="middle" fill="#475569" font-size="9" y="349" x="440">并：低注意力，连接词</text>
   <rect id="svg_89" opacity="0.08" fill="#f59e0b" rx="3" height="30" width="550" y="365" x="165"/>
   <text id="svg_90" text-anchor="middle" fill="#475569" font-size="9" y="384" x="440">给出：低注意力，通用动词</text>
   <!-- row 9: 优化 -->
   <rect id="svg_91" opacity="0.4" fill="#f59e0b" rx="3" height="30" width="50" y="400" x="165"/>
   <rect id="svg_92" opacity="0.45" fill="#f59e0b" rx="3" height="30" width="50" y="400" x="275"/>
   <rect id="svg_93" opacity="0.6" fill="#f59e0b" rx="3" height="30" width="50" y="400" x="385"/>
   <rect id="svg_94" opacity="0.55" fill="#f59e0b" rx="3" height="30" width="50" y="400" x="440"/>
   <rect id="svg_95" opacity="0.9" fill="#f59e0b" rx="3" height="30" width="50" y="400" x="605"/>
   <rect id="svg_96" opacity="0.95" fill="#f59e0b" rx="3" height="30" width="50" y="400" x="660"/>
   <text id="svg_97" font-weight="bold" text-anchor="middle" fill="#000" font-size="8" y="419" x="630">0.92</text>
   <text id="svg_98" font-weight="bold" text-anchor="middle" fill="#000" font-size="8" y="419" x="685">0.96</text>
   <!-- row 10: 建议 -->
   <rect id="svg_99" opacity="0.35" fill="#f59e0b" rx="3" height="30" width="50" y="435" x="165"/>
   <rect id="svg_100" opacity="0.4" fill="#f59e0b" rx="3" height="30" width="50" y="435" x="275"/>
   <rect id="svg_101" opacity="0.5" fill="#f59e0b" rx="3" height="30" width="50" y="435" x="385"/>
   <rect id="svg_102" opacity="0.45" fill="#f59e0b" rx="3" height="30" width="50" y="435" x="440"/>
   <rect id="svg_103" opacity="0.5" fill="#f59e0b" rx="3" height="30" width="50" y="435" x="550"/>
   <rect id="svg_104" opacity="0.95" fill="#f59e0b" rx="3" height="30" width="50" y="435" x="605"/>
   <rect id="svg_105" opacity="0.9" fill="#f59e0b" rx="3" height="30" width="50" y="435" x="660"/>
   <text id="svg_106" font-weight="bold" text-anchor="middle" fill="#000" font-size="8" y="454" x="630">0.94</text>
   <text id="svg_107" font-weight="bold" text-anchor="middle" fill="#000" font-size="8" y="454" x="685">0.91</text>
  </g>
  <rect stroke="#334155" id="svg_108" fill="#0c1322" rx="10" height="201.99999" width="152" y="130" x="731"/>
  <text id="svg_109" text-anchor="middle" fill="#fbbf24" font-weight="600" font-size="11" font-family="'Segoe UI', Arial, sans-serif" y="153" x="805">注意力强度</text>
  <rect id="svg_110" opacity="0.95" fill="#f59e0b" rx="3" height="14" width="110" y="165" x="750"/>
  <text id="svg_111" font-weight="bold" text-anchor="middle" fill="#000" font-size="8" y="176" x="805">高 (0.9+)</text>
  <rect id="svg_112" opacity="0.6" fill="#f59e0b" rx="3" height="14" width="110" y="185" x="750"/>
  <text id="svg_113" text-anchor="middle" fill="#000" font-size="8" y="196" x="805">中 (0.5-0.8)</text>
  <rect id="svg_114" opacity="0.15" fill="#f59e0b" rx="3" height="14" width="110" y="205" x="750"/>
  <text id="svg_115" text-anchor="middle" fill="#94a3b8" font-size="8" y="216" x="805">低 (&lt;0.3)</text>
  <text id="svg_116" text-anchor="middle" fill="#94a3b8" font-size="10" font-family="'Segoe UI', Arial, sans-serif" y="245" x="805">💡 每个 Token 同时</text>
  <text id="svg_117" text-anchor="middle" fill="#94a3b8" font-size="10" font-family="'Segoe UI', Arial, sans-serif" y="260" x="805">"关注"所有其他 Token</text>
  <text id="svg_118" text-anchor="middle" fill="#fbbf24" font-size="10" font-family="'Segoe UI', Arial, sans-serif" y="278" x="805">→ "分析"重点关注</text>
  <text id="svg_119" text-anchor="middle" fill="#fbbf24" font-size="10" font-family="'Segoe UI', Arial, sans-serif" y="293" x="805">"代码"和"这段"</text>
  <text id="svg_120" text-anchor="middle" fill="#fbbf24" font-size="10" font-family="'Segoe UI', Arial, sans-serif" y="311" x="805">→ "性能"与"问题"</text>
  <text id="svg_121" text-anchor="middle" fill="#fbbf24" font-size="10" font-family="'Segoe UI', Arial, sans-serif" y="326" x="805">高度互相关联</text>
  <rect id="svg_122" stroke="#334155" fill="#0c1322" rx="10" height="70" width="740" y="490" x="80"/>
  <text id="svg_123" text-anchor="middle" fill="#e2e8f0" font-weight="600" font-size="12" font-family="'Segoe UI', Arial, sans-serif" y="513" x="450">📐 对 Prompt 设计的启示</text>
  <text id="svg_124" fill="#94a3b8" font-size="11" font-family="'Segoe UI', Arial, sans-serif" y="535" x="100">① 结构化格式帮助模型更好地分配注意力（明确的标签 = 更好的注意力聚焦）</text>
  <text id="svg_125" fill="#94a3b8" font-size="11" font-family="'Segoe UI', Arial, sans-serif" y="553" x="100">② 关键词放在首尾位置能获得更高的注意力权重（首尾效应）</text>
 </g>
</svg>